{"title":"Zoolander.2.2016.HDTS.XVID.AC3.HQ.Hive-CM8","uid":13554353,"size":1486432256,"categoryP":"video","categoryS":"movies","magnet":"?xt=urn:btih:38391a9c5f139a825d11e393f34f0568a6c2de71&amp;dn=Zoolander.2.2016.HDTS.XVID.AC3.HQ.Hive-CM8&amp;tr=udp%3A%2F%2Ftracker.leechers-paradise.org%3A6969&amp;tr=udp%3A%2F%2Fzer0day.ch%3A1337&amp;tr=udp%3A%2F%2Fopen.demonii.com%3A1337&amp;tr=udp%3A%2F%2Ftracker.coppersurfer.tk%3A6969&amp;tr=udp%3A%2F%2Fexodus.desync.com%3A6969","seeders":106,"leechers":5,"uploader":".BONE.","files":1,"time":1455581692,"description":"http://i.imgur.com/W6KLeOV.jpg\r\n\r\nZoolander.2.2016.HDTS.XVID.AC3.HQ.Hive-CM8\r\n\r\nThx Hive\r\n\r\nCM8 Doing It Right The First Time\r\n\r\nSources:\r\n\r\nVideo: 1080p Incoming big thx\r\n\r\nAudio: Sweet Direct Line Big Thx to S4NDM4N\r\n\r\nNotes:\r\n\r\nThis is a perfect release, best possible Video and best possible Line combined\r\nthx for everyone involved\r\n\r\nEncode:\r\n\r\nVideo was already awesome, fixed perspective and slightly removed some noise and flicker in the video.\r\nfull video nothing is missing\r\n\r\nAudio was already direct, as perfect as it can be, lipsycned to my video\r\nwont get better than this till retail\r\nenjoy\r\n\r\nVideo: 720x400 @bitrate 1800 2pass\r\nAudio: English Direct Line AC3 2.0 Stereo\r\nSample: yes included\r\n \nhttp://www.imdb.com/title/tt1608290/\r\n\r\nGeneral\r\nComplete name                  : Zoolander.2.2016.HDTS.XVID.AC3.HQ.Hive-CM8.avi\r\nFormat                         : AVI\r\nFormat/Info                    : Audio Video Interleave\r\nFile size                      : 1.38 GiB\r\nDuration                       : 1h 35mn\r\nOverall bit rate               : 2 070 Kbps\r\nWriting application            : Nandub v1.0rc2\r\nWriting library                : Nandub build 1853/release\r\n\r\nVideo\r\nID                             : 0\r\nFormat                         : MPEG-4 Visual\r\nFormat profile                 : Advanced   \r\nFormat settings, BVOP          : 2\r\nFormat settings, QPel          : Yes\r\nFormat settings, GMC           : No warppoints\r\nFormat settings, Matrix        : Default (H.263)\r\nMuxing mode                    : Packed bitstream\r\nCodec ID                       : XVID\r\nCodec ID/Hint                  : XviD\r\nDuration                       : 1h 35mn\r\nBit rate                       : 1 801 Kbps\r\nWidth                          : 720 pixels\r\nHeight                         : 400 pixels\r\nDisplay aspect ratio           : 16:9\r\nFrame rate                     : 29.970 fps\r\nColor space                    : YUV\r\nChroma subsampling             : 4:2:0\r\nBit depth                      : 8 bits\r\nScan type                      : Progressive\r\nCompression mode               : Lossy\r\nBits/(Pixel*Frame)             : 0.209\r\nStream size                    : 1.21 GiB (87%)\r\nWriting library                : XviD 1.2.1 (UTC 2008-12-04)\r\n\r\nAudio\r\nID                             : 1\r\nFormat                         : AC-3\r\nFormat/Info                    : Audio Coding 3\r\nMode extension                 : CM (complete main)\r\nFormat settings, Endianness    : Big\r\nCodec ID                       : 2000\r\nDuration                       : 1h 35mn\r\nBit rate mode                  : Constant\r\nBit rate                       : 256 Kbps\r\nChannel(s)                     : 2 channels\r\nChannel positions              : Front: L R\r\nSampling rate                  : 48.0 KHz\r\nBit depth                      : 16 bits\r\nCompression mode               : Lossy\r\nStream size                    : 175 MiB (12%)\r\nAlignment                      : Split accross interleaves\r\nInterleave, duration           : 33 ms (1.00 video frame)\r\nInterleave, preload duration   : 500 ms\r\n\r\nScreens\r\n \nhttp://i.imgur.com/7t8G2cS.png \nhttp://i.imgur.com/cu8npOA.png \nhttp://i.imgur.com/AmThO6S.png \nhttp://i.imgur.com/h1NT9sM.png \nhttp://i.imgur.com/VWxOObM.png \nhttp://i.imgur.com/UAjVASe.png \nhttp://i.imgur.com/lEE1BNY.png \nhttp://i.imgur.com/Xo9XXc6.png \nhttp://i.imgur.com/X7G1fKM.png\r\n\r\nPlot\r\n\r\nDerek and Hansel are modelling again when an opposing company\r\nattempts to take them out from the business.\r\n\r\nOwen Wilson         ...         Hansel\r\nBen Stiller         ...         Derek Zoolander\r\nWill Ferrell         ...         Mugatu\r\nOlivia Munn         ...         Olivia Munn\r\nPenelope Cruz         ...         Valentina\r\nMilla Jovovich         ...         Katinka\r\nSusan Sarandon         ...         Susan Sarandon\r\n\r\n\r\nGreetz\r\n\r\nSugarB,iNCOMiNG,Izzy,MenaceIISociety,jiinx,SiMPLE,CherryBomb,bigguy79\r\nranbailey,ViSiON,UnKnOwN,YanKeeS,COPYxRIGHT,THC,VAiN,ACAB,DRs\r\nLKRG,Kingstoner,SiMPLE,TiTAN,cadance,PLAYNOW\r\nUnevano,BigVik,Rapeseed,SAFC,goldadvance,KaN1vE,Pinnz,Wayne,HiGH\r\nSeeN,jtr,Limey,ICONiK,TED,rkofan,mrtoke09\r\nMr Hive\r\n\r\nLOOKING FOR ANYTHING YOU WANT TO LOOK AND SOUND BETTER\r\n\r\nCOME FIND US WE DONT BITE","torrent":{"xt":"urn:btih:38391a9c5f139a825d11e393f34f0568a6c2de71","amp;dn":"Zoolander.2.2016.HDTS.XVID.AC3.HQ.Hive-CM8","amp;tr":["udp%3A%2F%2Ftracker.leechers-paradise.org%3A6969","udp%3A%2F%2Fzer0day.ch%3A1337","udp%3A%2F%2Fopen.demonii.com%3A1337","udp%3A%2F%2Ftracker.coppersurfer.tk%3A6969","udp%3A%2F%2Fexodus.desync.com%3A6969"],"infoHash":"38391a9c5f139a825d11e393f34f0568a6c2de71","infoHashBuffer":{"type":"Buffer","data":[56,57,26,156,95,19,154,130,93,17,227,147,243,79,5,104,166,194,222,113]},"announce":[],"urlList":[]}}